<svg width="103" height="29" viewBox="0 0 103 29" fill="none" xmlns="http://www.w3.org/2000/svg">
<path d="M0 7.05967H6.12782L9.69598 16.3277L13.3104 7.05967H19.2769L10.2928 29H4.2885L6.74776 23.1862L0 7.05967Z" fill="black"/>
<path d="M25.4924 6.69072C20.8882 6.69072 17.9776 10.8829 17.9776 15.0576C17.9776 19.7554 21.1687 23.4799 25.405 23.4799C28.5651 23.4799 29.7566 21.5252 29.7566 21.5252V23.0478H35.1013V7.05976H29.7566V8.51323C29.7566 8.51323 28.4273 6.69072 25.4924 6.69072ZM26.6292 11.8287C28.7536 11.8287 29.8498 13.5353 29.8498 15.0751C29.8498 16.7333 28.6753 18.3606 26.6292 18.3606C24.9333 18.3606 23.4008 16.9536 23.4008 15.1457C23.4008 13.3123 24.6335 11.8287 26.6292 11.8287Z" fill="black"/>
<path d="M36.9419 23.0477V0H42.5321V8.56858C42.5321 8.56858 43.8599 6.69269 46.6408 6.69269C50.0424 6.69269 52.0354 9.26583 52.0354 12.9427V23.0477H46.4861V14.327C46.4861 13.0826 45.9023 11.8805 44.5798 11.8805C43.2337 11.8805 42.5321 13.1008 42.5321 14.327V23.0477H36.9419Z" fill="black"/>
<path d="M61.5664 6.69261C56.2938 6.69261 53.1543 10.763 53.1543 15.1241C53.1543 20.0871 56.9556 23.4799 61.5864 23.4799C66.0748 23.4799 70.0023 20.241 70.0023 15.2074C70.0023 9.69961 65.8901 6.69261 61.5664 6.69261ZM61.6168 11.8757C63.4792 11.8757 64.7679 13.4506 64.7679 15.13C64.7679 16.5625 63.5671 18.3292 61.6168 18.3292C59.8297 18.3292 58.4885 16.8738 58.4885 15.1144C58.4885 13.4194 59.6036 11.8757 61.6168 11.8757Z" fill="black"/>
<path d="M79.3152 6.69261C74.0426 6.69261 70.9031 10.763 70.9031 15.1241C70.9031 20.0871 74.7044 23.4799 79.3352 23.4799C83.8236 23.4799 87.751 20.241 87.751 15.2074C87.751 9.69961 83.6389 6.69261 79.3152 6.69261ZM79.3656 11.8757C81.228 11.8757 82.5167 13.4506 82.5167 15.13C82.5167 16.5625 81.3159 18.3292 79.3656 18.3292C77.5785 18.3292 76.2373 16.8738 76.2373 15.1144C76.2373 13.4194 77.3524 11.8757 79.3656 11.8757Z" fill="black"/>
<path d="M92.1621 23.3872C94.2122 23.3872 95.8742 21.6999 95.8742 19.6185C95.8742 17.5371 94.2122 15.8498 92.1621 15.8498C90.112 15.8498 88.45 17.5371 88.45 19.6185C88.45 21.6999 90.112 23.3872 92.1621 23.3872Z" fill="black"/>
<path d="M97.0939 14.4654H90.4112L96.3422 0H103L97.0939 14.4654Z" fill="black"/>
</svg>
