<svg width="154" height="37" viewBox="0 0 154 37" fill="none" xmlns="http://www.w3.org/2000/svg">
<path d="M13.4967 12.6567H8.78516V29.4378H13.4967V12.6567Z" fill="#171717"/>
<path d="M18.3387 14.4066C19.7909 13.0037 21.8078 12.3022 24.3733 12.3022C26.9388 12.3022 28.9396 13.0037 30.3837 14.4066C31.8278 15.8095 32.5539 17.6441 32.5539 19.9027V29.4302H27.8505V20.2572C27.8505 18.9931 27.56 18.0141 26.9711 17.3127C26.3822 16.6112 25.5189 16.2566 24.3733 16.2566C23.2277 16.2566 22.3645 16.6112 21.7755 17.3127C21.1866 18.0141 20.8961 18.9931 20.8961 20.2572V29.4302H16.1523V19.9027C16.1523 17.6441 16.8784 15.8095 18.3387 14.4066Z" fill="#171717"/>
<path d="M45.162 29.4382C44.2423 29.6309 43.3549 29.7234 42.5078 29.7234C40.2408 29.7234 38.4255 29.099 37.0702 27.8503C35.7148 26.6015 35.0371 24.7747 35.0371 22.3697V7.26904H39.7809V12.6572H45.0491V16.3726H39.7809V21.9072C39.7809 23.3101 40.0713 24.2968 40.6603 24.8672C41.2492 25.4376 42.3222 25.7228 43.8954 25.7228L45.1701 25.6842V29.4305L45.162 29.4382Z" fill="#171717"/>
<path d="M50.7393 22.5853C51.0136 23.703 51.546 24.5663 52.3447 25.1753C53.1434 25.7842 54.1116 26.0848 55.2572 26.0848C56.2737 26.0848 57.0966 25.9461 57.7259 25.6763C58.3471 25.4065 58.8312 24.9671 59.1781 24.3736H63.5507C63.0263 26.1388 62.0098 27.4878 60.485 28.4282C58.9683 29.3686 57.258 29.8388 55.3701 29.8388C53.5791 29.8388 51.9898 29.4611 50.6102 28.7134C49.2306 27.9657 48.1576 26.9251 47.3993 25.5915C46.6409 24.258 46.2617 22.7471 46.2617 21.059C46.2617 19.3709 46.649 17.8909 47.4235 16.5573C48.198 15.2238 49.271 14.1832 50.6344 13.4355C52.0059 12.6878 53.5468 12.3101 55.2652 12.3101C56.9837 12.3101 58.4439 12.6878 59.7831 13.4509C61.1304 14.214 62.1792 15.2623 62.9376 16.5959C63.696 17.9294 64.0751 19.4171 64.0751 21.059C64.0751 21.6526 64.0509 22.1613 64.0025 22.593H50.7393V22.5853ZM50.6989 19.4403H59.6299C59.4846 18.4613 59.0006 17.6519 58.1938 17.0121C57.387 16.3723 56.4108 16.0486 55.2572 16.0486C54.1035 16.0486 53.1031 16.3569 52.3044 16.9736C51.5057 17.5903 50.9732 18.4151 50.6989 19.4403Z" fill="#171717"/>
<path d="M68.1629 14.4066C69.6151 13.0037 71.632 12.3022 74.1975 12.3022C76.763 12.3022 78.7638 13.0037 80.2079 14.4066C81.652 15.8095 82.3781 17.6441 82.3781 19.9027V29.4302H77.6747V20.2572C77.6747 18.9931 77.3842 18.0141 76.7953 17.3127C76.2064 16.6112 75.3431 16.2566 74.1975 16.2566C73.0519 16.2566 72.1887 16.6112 71.5997 17.3127C71.0108 18.0141 70.7204 18.9931 70.7204 20.2572V29.4302H65.9766V19.9027C65.9766 17.6441 66.7027 15.8095 68.1629 14.4066Z" fill="#171717"/>
<path d="M84.0574 24.4044H88.5753C88.6721 25.0211 88.9787 25.4913 89.4869 25.8151C89.9952 26.1388 90.6003 26.3007 91.2941 26.3007C91.9879 26.3007 92.4962 26.1696 92.8834 25.9076C93.2707 25.6455 93.4643 25.2986 93.4643 24.8746C93.4643 24.3967 93.2223 24.0267 92.7382 23.7646C92.2542 23.5026 91.4716 23.2328 90.4067 22.9476C89.2126 22.6161 88.2123 22.2692 87.4136 21.9146C86.6149 21.5601 85.9291 21.0128 85.3563 20.2728C84.7835 19.5328 84.4931 18.5615 84.4931 17.3436C84.4931 16.3955 84.7593 15.5321 85.2756 14.7767C85.8 14.0136 86.5503 13.4124 87.5346 12.973C88.5188 12.5336 89.6725 12.3101 90.9875 12.3101C92.8834 12.3101 94.4244 12.7726 95.6184 13.7053C96.8124 14.6303 97.4739 15.9099 97.595 17.5286H93.1497C93.0529 17.0276 92.8028 16.6267 92.4074 16.3184C92.0121 16.0101 91.4958 15.8559 90.8746 15.8559C90.2534 15.8559 89.7935 15.9946 89.4143 16.2798C89.0432 16.5651 88.8496 16.9196 88.8496 17.3513C88.8496 17.8061 89.0836 18.1453 89.5596 18.3842C90.0355 18.6232 90.8181 18.9084 91.9153 19.2398C93.1335 19.5944 94.1501 19.9567 94.9568 20.3113C95.7636 20.6659 96.4655 21.2132 97.0463 21.9532C97.6353 22.6932 97.9257 23.6644 97.9257 24.8823C97.9257 25.8613 97.6272 26.7169 97.0302 27.4723C96.4332 28.2201 95.6264 28.8059 94.6018 29.2221C93.5773 29.6384 92.472 29.8465 91.278 29.8465C89.2611 29.8465 87.583 29.3378 86.2357 28.328C84.8884 27.3182 84.1542 26.0155 84.0332 24.4198" fill="#171717"/>
<path d="M103.484 22.5853C103.758 23.703 104.29 24.5663 105.089 25.1753C105.888 25.7842 106.856 26.0848 108.002 26.0848C109.026 26.0848 109.841 25.9461 110.462 25.6763C111.083 25.4065 111.567 24.9671 111.922 24.3736H116.295C115.771 26.1388 114.754 27.4878 113.229 28.4282C111.713 29.3686 110.002 29.8388 108.115 29.8388C106.323 29.8388 104.734 29.4611 103.347 28.7134C101.967 27.9657 100.894 26.9251 100.136 25.5915C99.3772 24.258 98.998 22.7471 98.998 21.059C98.998 19.3709 99.3853 17.8909 100.152 16.5573C100.926 15.2238 101.999 14.1832 103.363 13.4355C104.734 12.6878 106.275 12.3101 107.993 12.3101C109.712 12.3101 111.164 12.6878 112.511 13.4509C113.859 14.214 114.907 15.2623 115.666 16.5959C116.424 17.9294 116.803 19.4171 116.803 21.059C116.803 21.6526 116.779 22.1613 116.731 22.593H103.468L103.484 22.5853ZM103.451 19.4403H112.382C112.237 18.4613 111.753 17.6519 110.946 17.0121C110.131 16.3723 109.155 16.0486 108.01 16.0486C106.864 16.0486 105.856 16.3569 105.057 16.9736C104.258 17.5903 103.726 18.4151 103.451 19.4403Z" fill="#171717"/>
<path d="M139.193 22.5853C139.467 23.703 139.999 24.5663 140.798 25.1753C141.597 25.7842 142.565 26.0848 143.711 26.0848C144.727 26.0848 145.55 25.9461 146.179 25.6763C146.8 25.4065 147.285 24.9671 147.631 24.3736H152.004C151.48 26.1388 150.463 27.4878 148.938 28.4282C147.422 29.3686 145.711 29.8388 143.824 29.8388C142.032 29.8388 140.443 29.4611 139.056 28.7134C137.676 27.9657 136.603 26.9251 135.845 25.5915C135.086 24.258 134.707 22.7471 134.707 21.059C134.707 19.3709 135.094 17.8909 135.869 16.5573C136.643 15.2238 137.708 14.1832 139.08 13.4355C140.451 12.6878 141.992 12.3101 143.711 12.3101C145.429 12.3101 146.889 12.6878 148.228 13.4509C149.576 14.214 150.625 15.2623 151.383 16.5959C152.141 17.9294 152.52 19.4171 152.52 21.059C152.52 21.6526 152.496 22.1613 152.448 22.593H139.185L139.193 22.5853ZM139.152 19.4403H148.083C147.938 18.4613 147.454 17.6519 146.647 17.0121C145.84 16.3723 144.864 16.0486 143.719 16.0486C142.573 16.0486 141.565 16.3569 140.766 16.9736C139.967 17.5903 139.435 18.4151 139.16 19.4403" fill="#171717"/>
<path d="M130.019 12.6567L125.856 24.4582H125.775L121.669 12.6567H116.521L123.355 29.4686L120.523 36.5063H125.412L135.013 12.6567H130.019Z" fill="#171717"/>
<path d="M13.4886 0.493164C6.45359 0.493164 0.757812 5.94296 0.757812 12.6569H5.5016C5.5016 8.44046 9.07558 5.02567 13.4886 5.02567V0.493164Z" fill="#171717"/>
</svg>
