<svg width="147" height="28" viewBox="0 0 147 28" fill="none" xmlns="http://www.w3.org/2000/svg">
<path d="M98.5703 5.80891C97.1081 7.09722 95.7049 8.33873 94.2808 9.59479C93.7671 8.8681 93.1822 8.23944 92.4739 7.72841C88.8112 5.08411 83.0492 6.17004 81.1737 11.0317C80.1196 13.7639 80.3949 16.4196 82.1019 18.8394C83.3563 20.6166 85.1339 21.5678 87.3025 21.8012C88.9517 21.9789 90.4871 21.6551 91.8655 20.726C93.2642 19.7837 94.1861 18.4738 94.7074 16.8807C94.7206 16.8409 94.7306 16.8 94.7373 16.7586C94.7353 16.7289 94.7295 16.6996 94.7201 16.6713L84.802 16.6713V11.5105L100.553 11.5105C100.603 11.9089 100.672 12.3194 100.702 12.733C100.893 15.2572 100.595 17.7143 99.5825 20.0537C98.1113 23.4506 95.6407 25.7768 92.067 26.8925C90.9732 27.2233 89.8401 27.4081 88.6974 27.4421C86.3451 27.5331 84.104 27.0892 82.0154 26.0058C78.6459 24.257 76.3494 21.5722 75.2476 17.9489C74.2164 14.5596 74.4955 11.2284 76.1123 8.0731C77.8861 4.60977 80.6727 2.26842 84.4575 1.23815C89.2823 -0.0760949 93.5255 1.11988 97.2123 4.40928C97.6803 4.8286 98.0929 5.31433 98.5703 5.80891Z" fill="black"/>
<path d="M146.138 16.6619L130.425 16.6619V11.4992L140.383 11.4992C140.272 11.1925 140.193 10.93 140.081 10.677C139.151 8.55891 137.642 7.04482 135.339 6.52177C131.725 5.69958 127.973 7.49386 126.672 11.305C125.728 14.0739 126.077 16.7176 127.88 19.0754C129.144 20.7248 130.875 21.6021 132.948 21.8032C134.97 21.9992 136.793 21.4781 138.367 20.2056C138.928 19.7528 139.395 19.1848 139.94 18.6346L144.136 22.337C143.333 23.3522 142.383 24.2437 141.317 24.9825C139.394 26.3284 137.269 27.1727 134.923 27.3935C132.507 27.6205 130.174 27.236 127.981 26.1829C124.619 24.5702 122.259 22.0157 121.029 18.5106C119.834 15.1036 119.999 11.713 121.531 8.43116C122.876 5.54842 125.02 3.41515 127.895 2.02817C130.128 0.952998 132.492 0.568464 134.96 0.774645C137.348 0.973869 139.522 1.73788 141.426 3.20011C143.439 4.74584 144.783 6.76653 145.577 9.15153C146.38 11.5631 146.549 14.0328 146.167 16.5418C146.16 16.5824 146.15 16.6225 146.138 16.6619V16.6619Z" fill="black"/>
<path d="M27.6126 1.19397V3.27538C27.6126 7.59717 27.6126 11.9189 27.6126 16.2407C27.6126 17.2059 27.7607 18.147 28.1905 19.0286C28.7831 20.2429 29.7501 20.9943 31.0547 21.3231C32.3091 21.6394 33.5565 21.604 34.7638 21.1296C36.3074 20.5225 37.1352 19.3189 37.4506 17.7447C37.5451 17.2486 37.5913 16.7445 37.5885 16.2395C37.6025 11.3485 37.6065 6.45748 37.6006 1.56649C37.6006 1.25658 37.6922 1.18701 37.9922 1.18701C39.8996 1.20029 41.8069 1.19397 43.7142 1.19397L44.0601 1.19397C44.0664 1.32742 44.0766 1.43873 44.0766 1.54941C44.0766 6.42944 44.0766 11.3093 44.0766 16.1889C44.0766 18.1172 43.7651 19.9836 42.9017 21.7267C41.5666 24.4247 39.3846 26.1538 36.4963 26.9362C33.3676 27.7831 30.2453 27.6989 27.2375 26.4011C24.4236 25.1868 22.6021 23.058 21.6961 20.1468C21.286 18.8275 21.1385 17.474 21.1398 16.0991C21.1428 11.2612 21.1404 6.42354 21.1328 1.58609C21.1328 1.25974 21.2218 1.18511 21.5397 1.18764C23.4362 1.20282 25.3327 1.19523 27.2292 1.19523L27.6126 1.19397Z" fill="black"/>
<path d="M71.2707 26.9624H64.8017V26.5564C64.7966 21.6654 64.7906 16.7744 64.7839 11.8834C64.7839 11.101 64.6796 10.3301 64.4024 9.59136C63.8683 8.16834 62.8632 7.24432 61.3876 6.86168C60.0378 6.5113 58.6932 6.56063 57.4127 7.13996C55.9905 7.7838 55.2314 8.95764 54.9497 10.4496C54.8576 10.9463 54.811 11.4504 54.8105 11.9555C54.7995 16.3713 54.7973 20.7875 54.8041 25.2042L54.8041 26.9561H48.3351V26.6108C48.3351 21.5941 48.3148 16.5768 48.3434 11.5583C48.3593 8.85708 49.1184 6.38671 50.9253 4.3053C52.4257 2.57616 54.3527 1.55222 56.5684 1.06522C58.8769 0.559259 61.1987 0.559259 63.4843 1.18666C67.5584 2.30926 70.0786 4.94534 70.949 9.06326C71.1759 10.1353 71.2497 11.2554 71.2567 12.352C71.2891 17.074 71.2707 21.7959 71.2707 26.5191V26.9624Z" fill="black"/>
<path d="M119.442 21.2166V26.9599L104.164 26.9599V26.6291C104.164 20.5601 104.164 14.4908 104.164 8.42135C104.164 6.74597 104.453 5.13258 105.359 3.67793C106.492 1.86088 108.131 0.867294 110.284 0.731948C110.358 0.727521 110.433 0.731948 110.507 0.731948C110.547 0.736894 110.587 0.744287 110.627 0.754084V21.2166L119.442 21.2166Z" fill="black"/>
<path d="M9.87109 27.3989L9.87109 1.19368H10.189C12.1268 1.19368 14.0672 1.19811 16.0038 1.18799C16.2682 1.18799 16.3414 1.26199 16.3414 1.52445C16.3344 7.6675 16.3471 13.8099 16.3286 19.953C16.3236 21.7517 15.93 23.4612 14.8352 24.9494C13.6806 26.5153 12.1205 27.3419 10.1718 27.4419C10.1082 27.4443 10.0445 27.4426 9.98108 27.4368C9.94338 27.4274 9.90658 27.4147 9.87109 27.3989V27.3989Z" fill="black"/>
<path d="M0.00050797 23.7515C0.0354755 21.6448 1.70756 20.0143 3.80561 20.0408C5.8706 20.0668 7.55667 21.7896 7.49945 23.8356C7.48865 24.3338 7.378 24.8248 7.174 25.2799C6.97 25.735 6.67674 26.145 6.31141 26.486C5.94608 26.8269 5.51603 27.0919 5.04644 27.2653C4.57686 27.4388 4.0772 27.5173 3.57673 27.4962C1.6141 27.4235 -0.033188 25.7367 0.00050797 23.7515Z" fill="black"/>
</svg>
