<svg width="123" height="35" viewBox="0 0 123 35" fill="none" xmlns="http://www.w3.org/2000/svg">
<g clip-path="url(#clip0_1259_21289)">
<path fill-rule="evenodd" clip-rule="evenodd" d="M9.84001 0H25.9418C31.3763 0 35.7818 4.30926 35.7818 9.625V25.375C35.7818 30.6907 31.3763 35 25.9418 35H9.84001C4.40552 35 0 30.6907 0 25.375V9.625C0 4.30926 4.40552 0 9.84001 0ZM78.1393 24.3054C78.9265 24.7759 79.8666 25.0112 80.9601 25.0112C81.6161 25.0112 82.2282 24.8757 82.7969 24.6048C83.3798 24.3339 83.8319 23.9632 84.1527 23.4926V24.8401H86.8203V9.44012H84.1527V15.3648C83.8319 14.9228 83.3873 14.5663 82.8186 14.2954C82.2503 14.0244 81.6161 13.889 80.9162 13.889C79.8374 13.889 78.9047 14.1243 78.1175 14.5948C77.3446 15.0654 76.7471 15.7213 76.3242 16.5626C75.916 17.3896 75.7121 18.3521 75.7121 19.4501C75.7121 20.5481 75.916 21.5177 76.3242 22.359C76.7471 23.186 77.3521 23.8348 78.1393 24.3054ZM82.9063 22.3376C82.4543 22.6085 81.9295 22.744 81.3319 22.744C80.4424 22.744 79.7283 22.4445 79.1889 21.8457C78.6495 21.2468 78.3799 20.4483 78.3799 19.4501C78.3799 18.7942 78.5037 18.2167 78.7514 17.7176C78.9992 17.2185 79.3419 16.8335 79.7793 16.5626C80.231 16.2917 80.7487 16.1562 81.3319 16.1562C82.2357 16.1562 82.9573 16.4557 83.4967 17.0545C84.0504 17.6534 84.3274 18.4519 84.3274 19.4501C84.3274 20.106 84.2037 20.6835 83.9559 21.1826C83.7078 21.6817 83.3581 22.0667 82.9063 22.3376ZM114.079 21.2433V24.8401H111.368V9.44012H114.079V17.9749L118.278 14.0601H121.689L117.202 18.2955L122.061 24.8401H118.824L115.366 20.0288L114.079 21.2433ZM102.89 24.5621C103.575 24.8615 104.355 25.0112 105.229 25.0112C106.075 25.0112 106.818 24.8758 107.46 24.6049C108.101 24.3339 108.597 23.9418 108.947 23.4285C109.297 22.9151 109.471 22.3234 109.471 21.6532C109.471 20.7549 109.282 20.0775 108.903 19.6212C108.524 19.1507 108.072 18.837 107.547 18.6801C107.037 18.509 106.381 18.3735 105.579 18.2737C105.069 18.1882 104.668 18.1169 104.377 18.0599C104.085 17.9885 103.844 17.8745 103.655 17.7176C103.465 17.5465 103.371 17.3112 103.371 17.0118C103.371 16.6553 103.509 16.3773 103.786 16.1776C104.078 15.9637 104.464 15.8568 104.945 15.8568C105.426 15.8568 105.856 15.9923 106.235 16.2632C106.614 16.5199 106.833 16.8906 106.891 17.3754H109.362C109.318 16.6767 109.107 16.0635 108.728 15.536C108.349 15.0084 107.824 14.602 107.154 14.3168C106.498 14.0316 105.74 13.889 104.879 13.889C104.136 13.889 103.465 14.0245 102.868 14.2954C102.27 14.5663 101.796 14.9442 101.446 15.429C101.111 15.9138 100.943 16.47 100.943 17.0974C100.943 17.9244 101.118 18.5589 101.468 19.001C101.833 19.443 102.263 19.7567 102.758 19.9421C103.269 20.1132 103.917 20.2558 104.705 20.3699C105.229 20.4554 105.638 20.541 105.929 20.6265C106.235 20.6978 106.483 20.8261 106.673 21.0115C106.862 21.1826 106.957 21.4322 106.957 21.7601C106.957 22.0881 106.796 22.3661 106.476 22.5943C106.155 22.8082 105.74 22.9151 105.229 22.9151C104.632 22.9151 104.136 22.7654 103.742 22.466C103.363 22.1665 103.145 21.7601 103.086 21.2468H100.637C100.681 22.0168 100.9 22.687 101.293 23.2574C101.687 23.8135 102.219 24.2484 102.89 24.5621ZM94.3076 25.0112C93.1414 25.0112 92.1353 24.7474 91.29 24.2199C90.4444 23.6923 89.7958 23.0007 89.3438 22.1451C88.9063 21.2896 88.6878 20.377 88.6878 19.4074C88.6878 18.4235 88.8917 17.518 89.2999 16.691C89.7228 15.8497 90.3349 15.1724 91.1367 14.659C91.9532 14.1457 92.9372 13.889 94.0887 13.889C95.2549 13.889 96.2389 14.1385 97.0407 14.6376C97.8572 15.1225 98.455 15.7641 98.834 16.5626C99.2276 17.3469 99.4244 18.1882 99.4244 19.0865C99.4244 19.386 99.4098 19.6854 99.3806 19.9849H91.2802C91.3323 20.4294 91.4451 20.8358 91.618 21.204C91.8658 21.7174 92.2156 22.1166 92.6676 22.4018C93.134 22.687 93.6805 22.8296 94.3076 22.8296C94.9925 22.8296 95.554 22.6941 95.9911 22.4232C96.4286 22.1523 96.7202 21.7601 96.866 21.2468H99.49C99.3588 22.0025 99.0526 22.6656 98.5716 23.236C98.0903 23.8063 97.4853 24.2484 96.7566 24.5621C96.0278 24.8615 95.2114 25.0112 94.3076 25.0112ZM96.7566 18.2524H91.3356C91.3902 17.9417 91.4695 17.6636 91.5742 17.4182C91.7927 16.8906 92.1136 16.4985 92.5364 16.2418C92.9589 15.9851 93.4766 15.8568 94.0887 15.8568C94.8613 15.8568 95.4884 16.0778 95.9694 16.5199C96.4503 16.9619 96.7127 17.5394 96.7566 18.2524ZM64.688 14.0601H67.3997L69.9581 21.5035L72.4944 14.0601H75.2496L71.2262 24.8401H68.7117L64.688 14.0601ZM56.0324 24.2199C56.878 24.7474 57.8838 25.0112 59.05 25.0112C59.9541 25.0112 60.7702 24.8615 61.4992 24.5621C62.228 24.2484 62.833 23.8063 63.314 23.236C63.7952 22.6656 64.1012 22.0025 64.2324 21.2468H61.6084C61.4629 21.7601 61.1712 22.1523 60.7338 22.4232C60.2964 22.6941 59.7352 22.8296 59.05 22.8296C58.4232 22.8296 57.8766 22.687 57.41 22.4018C56.9582 22.1166 56.6085 21.7174 56.3604 21.204C56.1874 20.8358 56.075 20.4294 56.0228 19.9849H64.1232C64.1525 19.6854 64.1668 19.386 64.1668 19.0865C64.1668 18.1882 63.97 17.3469 63.5764 16.5626C63.1974 15.7641 62.5998 15.1225 61.7834 14.6376C60.9816 14.1385 59.9976 13.889 58.8314 13.889C57.6798 13.889 56.6958 14.1457 55.8794 14.659C55.0776 15.1724 54.4654 15.8497 54.0426 16.691C53.6344 17.518 53.4304 18.4235 53.4304 19.4074C53.4304 20.377 53.649 21.2896 54.0864 22.1451C54.5382 23.0007 55.187 23.6923 56.0324 24.2199ZM56.078 18.2524H61.4992C61.4554 17.5394 61.193 16.9619 60.712 16.5199C60.2308 16.0778 59.604 15.8568 58.8314 15.8568C58.2192 15.8568 57.7016 15.9851 57.2788 16.2418C56.8562 16.4985 56.5354 16.8906 56.3168 17.4182C56.2122 17.6636 56.1326 17.9417 56.078 18.2524ZM47.9478 25.0112C47.0732 25.0112 46.2931 24.8615 45.6082 24.5621C44.9376 24.2484 44.4054 23.8135 44.0118 23.2574C43.6182 22.687 43.3996 22.0168 43.3558 21.2468H45.805C45.8632 21.7601 46.0817 22.1665 46.461 22.466C46.8546 22.7654 47.3502 22.9151 47.9478 22.9151C48.458 22.9151 48.8736 22.8082 49.1942 22.5943C49.515 22.3661 49.6754 22.0881 49.6754 21.7601C49.6754 21.4322 49.5806 21.1826 49.391 21.0115C49.2016 20.8261 48.9538 20.6978 48.6476 20.6265C48.356 20.541 47.9478 20.4554 47.423 20.3699C46.6358 20.2558 45.9872 20.1132 45.477 19.9421C44.9811 19.7567 44.5512 19.443 44.1868 19.001C43.837 18.5589 43.662 17.9244 43.662 17.0974C43.662 16.47 43.8296 15.9138 44.165 15.429C44.5148 14.9442 44.9886 14.5663 45.5862 14.2954C46.184 14.0245 46.8546 13.889 47.598 13.889C48.4579 13.889 49.2162 14.0316 49.8722 14.3168C50.5425 14.602 51.0673 15.0084 51.4466 15.536C51.8256 16.0635 52.037 16.6767 52.0806 17.3754H49.6098C49.5514 16.8906 49.3328 16.5199 48.9538 16.2632C48.5745 15.9923 48.1446 15.8568 47.6636 15.8568C47.1826 15.8568 46.7962 15.9637 46.5046 16.1776C46.2276 16.3773 46.0892 16.6553 46.0892 17.0118C46.0892 17.3112 46.184 17.5465 46.3734 17.7176C46.563 17.8745 46.8033 17.9885 47.095 18.0599C47.3866 18.1169 47.7873 18.1882 48.2978 18.2737C49.0993 18.3735 49.7553 18.509 50.2658 18.6801C50.7906 18.837 51.2424 19.1507 51.6214 19.6212C52.0003 20.0775 52.19 20.7549 52.19 21.6532C52.19 22.3234 52.015 22.9151 51.6652 23.4285C51.3154 23.9418 50.8195 24.3339 50.1782 24.6049C49.5368 24.8758 48.7934 25.0112 47.9478 25.0112Z" fill="black"/>
<path fill-rule="evenodd" clip-rule="evenodd" d="M26.6806 10.8892V22.7017C26.6806 23.6682 25.8796 24.4517 24.8916 24.4517C23.9035 24.4517 23.1025 23.6682 23.1025 22.7017V10.8892C23.1025 9.92266 23.9035 9.13916 24.8916 9.13916C25.8796 9.13916 26.6806 9.92266 26.6806 10.8892ZM19.6745 22.823V15.3855C19.6745 14.419 18.8735 13.6355 17.8854 13.6355C16.8974 13.6355 16.0963 14.419 16.0963 15.3855V22.823C16.0963 23.7895 16.8974 24.573 17.8854 24.573C18.8735 24.573 19.6745 23.7895 19.6745 22.823ZM9.1875 22.82C9.1875 23.7853 9.98663 24.5684 10.9735 24.57C11.9628 24.5717 12.7657 23.7877 12.7657 22.82V19.543C12.7657 18.5769 11.9654 17.7936 10.9778 17.793C9.98925 17.7923 9.1875 18.576 9.1875 19.543V22.82Z" fill="white"/>
</g>
<defs>
<clipPath id="clip0_1259_21289">
<rect width="123" height="35" fill="white"/>
</clipPath>
</defs>
</svg>
