<svg width="167" height="28" viewBox="0 0 167 28" fill="none" xmlns="http://www.w3.org/2000/svg">
<path fill-rule="evenodd" clip-rule="evenodd" d="M44.3647 0L30.2085 27.6739H16.9118L22.8362 16.2047H22.5704C17.6828 22.5494 10.3905 26.7261 0 27.6739V16.3634C0 16.3634 6.64704 15.9708 10.5546 11.8625H0V0.000218595H11.8623V9.75677L12.1285 9.75567L16.9759 0.000218595H25.947V9.69491L26.2133 9.69447L31.2425 0H44.3647Z" fill="black"/>
<path d="M121.56 24.6192H125.381V2.69043H121.56V24.6192Z" fill="black"/>
<path fill-rule="evenodd" clip-rule="evenodd" d="M100.499 24.3953C101.33 24.7405 102.174 24.9131 103.032 24.9131C104.45 24.9131 105.719 24.5679 106.839 23.8775C107.958 23.1871 108.826 22.2355 109.442 21.0227C110.057 19.8005 110.365 18.4151 110.365 16.8664C110.365 15.3178 110.048 13.9324 109.414 12.7102C108.779 11.4881 107.898 10.5411 106.769 9.8694C105.64 9.18835 104.357 8.8525 102.92 8.86183C102.006 8.86183 101.129 9.03908 100.289 9.3936C99.4498 9.74812 98.7501 10.2519 98.1904 10.905C98.1471 10.9547 98.1051 11.0049 98.0644 11.0556V2.70442H94.23V24.6192H98.0364L98.0287 22.5719C98.1272 22.6926 98.2324 22.8106 98.3443 22.9259C98.9507 23.551 99.6691 24.0408 100.499 24.3953ZM104.418 20.8548C103.793 21.2373 103.079 21.4285 102.277 21.4285C101.484 21.4285 100.756 21.2326 100.094 20.8408C99.4312 20.4396 98.9041 19.8938 98.5122 19.2035C98.1297 18.5131 97.9385 17.7294 97.9385 16.8525C97.9291 15.9755 98.1157 15.1918 98.4982 14.5014C98.8901 13.8017 99.4172 13.2606 100.08 12.8781C100.742 12.4863 101.474 12.295 102.277 12.3044C103.079 12.295 103.793 12.4816 104.418 12.8641C105.052 13.2373 105.537 13.7738 105.873 14.4735C106.218 15.1638 106.391 15.9568 106.391 16.8525C106.391 17.7481 106.218 18.5411 105.873 19.2314C105.537 19.9218 105.052 20.4629 104.418 20.8548Z" fill="black"/>
<path d="M49.9004 4.01987H54.2665L58.1722 18.2836L62.3271 4.01987H65.9656L70.4718 17.9974L74.2221 4.01987H78.2244L72.3189 24.6192H68.5545L63.9724 10.9643L59.7662 24.6192H55.9598L49.9004 4.01987Z" fill="black"/>
<path fill-rule="evenodd" clip-rule="evenodd" d="M84.6721 24.983C83.1514 24.9924 81.7799 24.6565 80.5578 23.9754C79.345 23.2851 78.3887 22.3288 77.689 21.1067C76.9986 19.8845 76.6534 18.4898 76.6534 16.9224C76.6534 15.4017 77.008 14.0256 77.717 12.7942C78.426 11.5627 79.387 10.6018 80.5998 9.91138C81.8126 9.22101 83.1654 8.87582 84.6581 8.87582C86.3374 8.87582 87.8067 9.249 89.0662 9.99535C90.335 10.7417 91.2819 11.8006 91.907 13.172C92.5414 14.5341 92.77 16.0968 92.5927 17.86H80.6057C80.6392 18.5625 80.8145 19.2016 81.1315 19.7772C81.4861 20.4116 81.9805 20.9061 82.6149 21.2606C83.2493 21.6151 83.9584 21.7924 84.742 21.7924C85.3391 21.783 85.8942 21.6804 86.4073 21.4845C86.9204 21.2793 87.3543 21.004 87.7088 20.6588C88.0726 20.3137 88.3292 19.9218 88.4784 19.4833H92.4808C92.2382 20.5562 91.7531 21.5125 91.0254 22.3521C90.2977 23.1824 89.3834 23.8308 88.2825 24.2973C87.1817 24.7638 85.9782 24.9924 84.6721 24.983ZM81.1455 14.0117C80.9219 14.4015 80.767 14.8213 80.6809 15.2711H88.6268C88.5691 14.7029 88.3937 14.1851 88.1006 13.7178C87.7648 13.1673 87.3076 12.7429 86.7292 12.4443C86.1508 12.1364 85.4977 11.9825 84.77 11.9825C83.9957 11.9825 83.2913 12.1598 82.6569 12.5143C82.0225 12.8688 81.5187 13.3679 81.1455 14.0117Z" fill="black"/>
<path d="M113.178 9.19768C113.178 7.94754 113.463 6.83735 114.032 5.86709C114.601 4.8875 115.398 4.12716 116.425 3.58605C117.46 3.03562 118.668 2.75107 120.049 2.73241V6.13298C119.405 6.14231 118.855 6.27758 118.398 6.53881C117.95 6.7907 117.605 7.15921 117.362 7.64434C117.139 8.09096 117.018 8.60874 117.001 9.19768H119.965V12.4303H116.998V24.6192H113.178V12.4303H110.715V9.19768H113.178Z" fill="black"/>
<path fill-rule="evenodd" clip-rule="evenodd" d="M135.093 24.955C133.535 24.955 132.14 24.6145 130.908 23.9335C129.686 23.2431 128.725 22.2915 128.026 21.0787C127.335 19.8565 126.99 18.4711 126.99 16.9224C126.99 15.3644 127.335 13.9743 128.026 12.7522C128.725 11.5207 129.686 10.5644 130.908 9.88339C132.14 9.20235 133.535 8.86183 135.093 8.86183C136.66 8.86183 138.059 9.20235 139.291 9.88339C140.532 10.5644 141.497 11.516 142.188 12.7382C142.878 13.9603 143.228 15.3551 143.237 16.9224C143.228 18.4711 142.878 19.8565 142.188 21.0787C141.507 22.2915 140.546 23.2431 139.305 23.9335C138.064 24.6145 136.66 24.955 135.093 24.955ZM135.093 21.4425C135.914 21.4425 136.641 21.2559 137.276 20.8828C137.91 20.5002 138.4 19.9685 138.745 19.2874C139.09 18.597 139.263 17.8087 139.263 16.9224C139.263 16.0268 139.09 15.2338 138.745 14.5434C138.4 13.8531 137.91 13.3213 137.276 12.9481C136.641 12.5656 135.914 12.3743 135.093 12.3743C134.281 12.3743 133.558 12.5656 132.923 12.9481C132.298 13.3213 131.813 13.8531 131.468 14.5434C131.123 15.2338 130.955 16.0268 130.964 16.9224C130.964 17.8087 131.137 18.597 131.482 19.2874C131.837 19.9685 132.322 20.5002 132.937 20.8828C133.563 21.2559 134.281 21.4425 135.093 21.4425Z" fill="black"/>
<path d="M147.365 9.19768H143.111L147.715 24.6192H151.438L154.465 14.7695L157.735 24.6192H161.401L166.02 9.19768H162.171L159.552 18.7966L156.657 9.19768H152.935L150.054 19.008L147.365 9.19768Z" fill="black"/>
</svg>
