<svg width="93" height="18" viewBox="0 0 93 18" fill="none" xmlns="http://www.w3.org/2000/svg">
<path d="M0 0.48938V16.8426H16.6578V0.48938H0ZM11.531 11.8095H5.12681V5.52247H11.531V11.8095Z" fill="black"/>
<path d="M28.1937 5.52246H21.7852V11.8138H28.1937V5.52246Z" fill="black"/>
<path d="M33.3149 0.48938H42.5974C46.0051 0.48938 47.5624 2.71819 47.5624 4.75805C47.5624 6.22675 46.985 7.17153 45.4452 8.05619C47.3874 8.76047 48.446 10.0359 48.446 11.9985C48.446 14.3475 46.6962 16.8426 42.6105 16.8426H33.3105L33.3149 0.48938ZM38.3849 13.158H41.7444C41.9673 13.1771 42.1918 13.1504 42.4035 13.0795C42.6153 13.0087 42.8097 12.8953 42.9743 12.7466C43.139 12.5979 43.2702 12.4172 43.3597 12.2159C43.4492 12.0146 43.495 11.7972 43.4942 11.5776C43.4878 11.3845 43.4414 11.1948 43.3576 11.02C43.2738 10.8451 43.1545 10.689 43.0071 10.5611C42.8596 10.4332 42.687 10.3363 42.5 10.2762C42.3129 10.2162 42.1153 10.1943 41.9194 10.212H38.3849V13.158ZM38.3849 6.93534H41.0839C42.3175 6.93534 42.8074 6.37276 42.8074 5.54394C42.814 5.36952 42.7823 5.19574 42.7146 5.03435C42.6469 4.87297 42.5447 4.72773 42.4149 4.60845C42.2851 4.48917 42.1308 4.39862 41.9623 4.34294C41.7938 4.28726 41.6151 4.26772 41.4382 4.28567H38.4199L38.3849 6.93534Z" fill="black"/>
<path d="M53.7306 0.48938H59.098L65.2222 16.8083H59.6973L58.8881 14.3647H53.7306L53.0482 16.7954H47.6064L53.7306 0.48938ZM56.1934 5.3378L54.7805 10.7917H57.8076L56.1934 5.3378Z" fill="black"/>
<path d="M73.7663 5.34658H78.8843C78.8843 2.57237 76.7584 0 71.7147 0C66.1811 0 64.4707 3.00611 64.4707 5.19198C64.4707 8.7263 68.8801 9.66679 69.0157 9.70973C69.6718 9.91586 72.4102 10.633 73.0926 10.8735C73.6875 11.0797 74.2518 11.5478 74.2518 12.1619C74.2518 13.1152 73.0926 13.5747 72.1303 13.5747C71.5091 13.5747 69.4269 13.3729 69.4269 11.2085H64.1426C64.1426 14.0815 66.1592 17.3023 71.8109 17.3023C78.0532 17.3023 79.3568 13.6477 79.3568 11.7195C79.3451 10.8029 79.0492 9.91154 78.5083 9.16424C77.9675 8.41695 77.2075 7.84922 76.3297 7.53674C75.0611 7.03429 72.9526 6.59197 71.8984 6.29136C71.3647 6.13676 69.5887 5.78461 69.5887 4.71959C69.5887 3.35825 71.8765 3.53433 71.5441 3.53433C72.5764 3.52574 73.7663 4.0969 73.7663 5.34658Z" fill="black"/>
<path d="M80.2264 0.485474H92.9997V4.80139H85.3314V7.67866H92.1686V11.8013H85.3051V16.8387H80.2002L80.2264 0.485474Z" fill="black"/>
</svg>
