<svg width="136" height="25" viewBox="0 0 136 25" fill="none" xmlns="http://www.w3.org/2000/svg">
<path d="M135.502 0.0715332H111.314C111.039 0.0715332 110.816 0.292049 110.816 0.564069V24.49C110.816 24.7621 111.039 24.9826 111.314 24.9826H135.502C135.777 24.9826 136 24.7621 136 24.49V0.564069C136 0.292049 135.777 0.0715332 135.502 0.0715332Z" fill="black"/>
<path d="M122.755 8.80922V14.4918H126.204C126.283 14.4918 126.36 14.5232 126.416 14.5789C126.472 14.6346 126.504 14.7103 126.504 14.7891V16.2732C126.504 16.352 126.472 16.4277 126.416 16.4834C126.36 16.5391 126.283 16.5705 126.204 16.5705H120.597C120.518 16.5693 120.443 16.5375 120.387 16.4819C120.332 16.4263 120.301 16.3513 120.301 16.2732V8.80922C120.301 8.73018 120.334 8.65458 120.39 8.59889C120.447 8.54321 120.524 8.51196 120.603 8.51196H122.453C122.532 8.51196 122.609 8.54328 122.665 8.59903C122.722 8.65477 122.753 8.73038 122.753 8.80922" fill="white"/>
<path d="M107.611 0.0888672H83.4227C83.1477 0.0888672 82.9248 0.309383 82.9248 0.581403V24.5074C82.9248 24.7794 83.1477 24.9999 83.4227 24.9999H107.611C107.886 24.9999 108.109 24.7794 108.109 24.5074V0.581403C108.109 0.309383 107.886 0.0888672 107.611 0.0888672Z" fill="black"/>
<path d="M96.6566 8.51196L100.282 16.3231C100.295 16.3505 100.301 16.3807 100.299 16.4108C100.297 16.441 100.287 16.4702 100.271 16.4957C100.255 16.5212 100.232 16.5422 100.205 16.5568C100.179 16.5714 100.149 16.579 100.118 16.5791H97.9244C97.8532 16.5805 97.7833 16.5604 97.7238 16.5217C97.6642 16.483 97.618 16.4274 97.591 16.3622L97.251 15.555H93.7413L93.3882 16.3643C93.3606 16.4287 93.3145 16.4836 93.2556 16.5222C93.1967 16.5607 93.1276 16.5813 93.0569 16.5813H90.8634C90.8328 16.5812 90.8028 16.5735 90.776 16.5589C90.7493 16.5443 90.7267 16.5233 90.7103 16.4978C90.6939 16.4723 90.6843 16.4432 90.6823 16.413C90.6803 16.3828 90.686 16.3527 90.6989 16.3253L94.3687 8.51413L96.6566 8.51196ZM96.3407 13.574L95.4896 11.3457L94.6297 13.574H96.3407Z" fill="white"/>
<path d="M80.4571 0.73121C80.4559 0.537258 80.3774 0.351608 80.2385 0.214664C80.0997 0.0777207 79.9118 0.000568768 79.7157 0L56.0122 0C55.8171 0.00171225 55.6305 0.0794369 55.4929 0.216319C55.3554 0.353201 55.2779 0.538204 55.2773 0.73121V24.1777C55.2779 24.3716 55.3559 24.5575 55.4944 24.6948C55.6328 24.8322 55.8205 24.9099 56.0166 24.911H73.6703L80.4703 18.1848L80.4571 0.73121Z" fill="black"/>
<g opacity="0.3">
<g opacity="0.3">
<path opacity="0.3" d="M73.8436 18.4364L67.3003 24.9109H73.666L80.4572 18.1934L73.8436 18.4364Z" fill="black"/>
</g>
</g>
<path d="M80.4572 18.1934H74.4052C74.2094 18.1939 74.0217 18.2712 73.8832 18.4082C73.7447 18.5452 73.6666 18.7308 73.666 18.9246V24.9109L80.4572 18.1934Z" fill="#606060"/>
<path d="M68.1536 8.4231C68.5335 8.43208 68.9118 8.4764 69.2833 8.55545C69.6805 8.63856 70.0567 8.79968 70.3898 9.02927C70.7229 9.25885 71.006 9.55223 71.2224 9.89202C71.9419 11.0355 71.8015 12.7127 70.5446 13.5568C70.4108 13.6457 70.2814 13.7412 70.1212 13.8518C70.1585 13.9169 71.3013 15.6744 71.6984 16.2841C71.7121 16.3039 71.7201 16.3271 71.7214 16.3511C71.7227 16.3751 71.7172 16.3989 71.7057 16.42C71.6941 16.4412 71.6768 16.4587 71.6558 16.4707C71.6348 16.4827 71.6108 16.4887 71.5865 16.4881H69.0793C69.0296 16.4881 68.9808 16.4755 68.9374 16.4516C68.894 16.4277 68.8576 16.3932 68.8314 16.3514L67.4999 14.2988H66.4404V16.1887C66.4413 16.228 66.4342 16.267 66.4197 16.3036C66.4051 16.3402 66.3832 16.3735 66.3554 16.4016C66.3276 16.4296 66.2944 16.452 66.2578 16.4672C66.2212 16.4824 66.1819 16.4903 66.1421 16.4903H64.271C64.2321 16.4903 64.1936 16.4827 64.1577 16.468C64.1218 16.4533 64.0891 16.4317 64.0616 16.4045C64.0341 16.3773 64.0123 16.345 63.9974 16.3095C63.9826 16.2739 63.9749 16.2358 63.9749 16.1974V8.72252C63.9743 8.68359 63.9815 8.64493 63.9961 8.60877C64.0107 8.5726 64.0324 8.53966 64.0599 8.51182C64.0875 8.48399 64.1203 8.46182 64.1565 8.44659C64.1927 8.43136 64.2317 8.42338 64.271 8.4231H68.1536ZM66.4558 12.3287H68.1712C68.3269 12.3264 68.4803 12.2909 68.6208 12.2245C68.7744 12.1485 68.9024 12.0303 68.9896 11.884C69.0768 11.7377 69.1193 11.5697 69.1122 11.4C69.1233 11.2417 69.0859 11.0837 69.0049 10.9467C68.9239 10.8097 68.8031 10.7 68.6581 10.6319C68.4888 10.5386 68.2967 10.4936 68.1032 10.5017H66.4646C66.4646 11.1201 66.4646 12.3308 66.4646 12.3308" fill="white"/>
<path d="M52.3249 0.0888672H28.1366C27.8616 0.0888672 27.6387 0.309383 27.6387 0.581403V24.5074C27.6387 24.7794 27.8616 24.9999 28.1366 24.9999H52.3249C52.5999 24.9999 52.8228 24.7794 52.8228 24.5074V0.581403C52.8228 0.309383 52.5999 0.0888672 52.3249 0.0888672Z" fill="black"/>
<path d="M44.2044 8.44022C44.2431 8.43964 44.2815 8.44668 44.3174 8.46093C44.3533 8.47517 44.386 8.49634 44.4136 8.52319C44.4411 8.55005 44.463 8.58205 44.4779 8.61735C44.4929 8.65265 44.5006 8.69053 44.5006 8.7288V12.9338C44.502 13.9081 44.115 14.8436 43.4235 15.5375C42.8205 16.102 42.053 16.4642 41.23 16.5725C40.727 16.6547 40.2156 16.6744 39.7077 16.6311C38.6438 16.5508 37.6698 16.2318 36.9153 15.4334C36.4222 14.9115 36.1049 14.2512 36.0071 13.5435C35.9549 13.1587 35.93 12.7709 35.9326 12.3827C35.9326 11.4432 35.9326 9.47302 35.9326 8.73314C35.9325 8.69506 35.9402 8.65735 35.955 8.6222C35.9698 8.58704 35.9915 8.55513 36.0188 8.52831C36.0461 8.50148 36.0785 8.48027 36.1142 8.4659C36.1498 8.45152 36.188 8.44427 36.2265 8.44456H38.0866C38.1254 8.44369 38.164 8.45043 38.2001 8.46439C38.2363 8.47834 38.2692 8.49923 38.2972 8.52586C38.3251 8.55248 38.3474 8.58431 38.3629 8.61952C38.3783 8.65472 38.3866 8.6926 38.3871 8.73097C38.3871 9.46652 38.3871 11.4128 38.3871 12.3414C38.3794 12.7652 38.4539 13.1865 38.6065 13.5826C38.7375 13.9155 38.9829 14.192 39.2997 14.3637C39.7292 14.5759 40.2197 14.6349 40.6882 14.5307C40.9834 14.4899 41.2589 14.3604 41.4774 14.1598C41.6959 13.9592 41.8469 13.6972 41.91 13.409C41.9676 13.1878 41.9971 12.9604 41.9977 12.732C41.9977 11.6992 41.9977 9.51425 41.9977 8.7288C41.9989 8.65186 42.0306 8.57847 42.086 8.52447C42.1414 8.47047 42.2161 8.44021 42.2939 8.44022H44.2044Z" fill="white"/>
<path d="M24.6862 0.0180664H0.497935C0.222933 0.0180664 0 0.238582 0 0.510602V24.4366C0 24.7086 0.222933 24.9291 0.497935 24.9291H24.6862C24.9612 24.9291 25.1841 24.7086 25.1841 24.4366V0.510602C25.1841 0.238582 24.9612 0.0180664 24.6862 0.0180664Z" fill="black"/>
<path d="M17.408 8.78101V16.2927C17.4075 16.3639 17.3786 16.432 17.3277 16.4823C17.2768 16.5327 17.208 16.5612 17.136 16.5618H15.1618C15.0897 16.5618 15.0205 16.5334 14.9695 16.483C14.9185 16.4325 14.8898 16.3641 14.8898 16.2927C14.8898 15.4118 14.8898 12.6584 14.8898 12.5499L12.466 15.8523C12.3037 15.6353 10.0926 12.5716 9.9741 12.3806C9.9741 12.5217 9.9741 15.4183 9.9741 16.3123C9.97353 16.3832 9.94461 16.4511 9.89367 16.5011C9.84272 16.5511 9.77386 16.5791 9.7021 16.5791H7.78714C7.715 16.5791 7.64581 16.5508 7.5948 16.5003C7.54379 16.4499 7.51514 16.3814 7.51514 16.3101V8.78752C7.51571 8.71634 7.54455 8.64824 7.59544 8.5979C7.64632 8.54757 7.71518 8.51904 7.78714 8.51847H9.54198C9.5847 8.51889 9.62674 8.5291 9.6648 8.5483C9.70286 8.5675 9.7359 8.59517 9.76133 8.62913L12.444 12.2808L15.1618 8.62262C15.1873 8.58866 15.2203 8.56099 15.2584 8.54179C15.2964 8.52259 15.3385 8.51238 15.3812 8.51196H17.136C17.208 8.51253 17.2768 8.54106 17.3277 8.59139C17.3786 8.64173 17.4075 8.70983 17.408 8.78101Z" fill="white"/>
</svg>
