<svg width="113" height="34" viewBox="0 0 113 34" fill="none" xmlns="http://www.w3.org/2000/svg">
<path d="M16.9457 0C7.58706 0 0 7.61129 0 17.0001C0 26.3893 7.58706 34 16.9457 34C26.3054 34 33.8917 26.3893 33.8917 17.0001C33.8917 7.6119 26.3054 0.000812018 16.9455 0.000812018L16.9457 0V0ZM24.7169 24.519C24.4134 25.0184 23.7618 25.1768 23.264 24.8702C19.2854 22.4321 14.2767 21.88 8.37807 23.232C7.80965 23.3619 7.24306 23.0046 7.11356 22.4342C6.98344 21.8637 7.33817 21.2953 7.908 21.1654C14.3631 19.6859 19.9001 20.3229 24.3669 23.0614C24.8647 23.368 25.0225 24.0196 24.7169 24.519V24.519ZM26.7911 19.8901C26.4086 20.5137 25.5952 20.7106 24.9739 20.327C20.4189 17.5182 13.4756 16.7047 8.08789 18.3454C7.38916 18.5572 6.65118 18.1621 6.43911 17.4623C6.22866 16.7614 6.62265 16.0224 7.32016 15.8093C13.4744 13.9359 21.1252 14.8434 26.356 18.0681C26.9772 18.4518 27.1735 19.2679 26.7911 19.8903V19.8901ZM26.9691 15.0699C21.5076 11.8155 12.4968 11.5163 7.28232 13.104C6.44498 13.3588 5.55948 12.8846 5.30572 12.0445C5.05197 11.2041 5.52427 10.3163 6.36222 10.061C12.3481 8.23797 22.2988 8.59019 28.5868 12.335C29.3415 12.7835 29.5884 13.7593 29.1412 14.5139C28.696 15.2695 27.7207 15.5186 26.97 15.0699H26.9691ZM46.1038 15.6936C43.1777 14.9936 42.6577 14.5023 42.6577 13.47C42.6577 12.4948 43.5723 11.8385 44.9341 11.8385C46.2535 11.8385 47.5607 12.3369 48.9327 13.3628C48.9731 13.3939 49.0257 13.4063 49.0763 13.3982C49.1289 13.3905 49.1735 13.3622 49.2038 13.3198L50.6324 11.2995C50.6911 11.2163 50.6749 11.1016 50.596 11.038C48.963 9.72397 47.1256 9.08511 44.9766 9.08511C41.8179 9.08511 39.6102 10.9871 39.6102 13.7084C39.6102 16.6266 41.5144 17.6599 44.8046 18.4575C47.6032 19.1045 48.0767 19.6465 48.0767 20.6152C48.0767 21.6891 47.1216 22.357 45.5837 22.357C43.8758 22.357 42.4816 21.7785 40.9235 20.4264C40.885 20.3919 40.8324 20.3777 40.7839 20.3797C40.7312 20.3838 40.6847 20.4082 40.6523 20.4467L39.0497 22.359C38.9829 22.4402 38.991 22.558 39.0679 22.627C40.881 24.2511 43.1109 25.1077 45.5189 25.1077C48.9225 25.1077 51.1221 23.2421 51.1221 20.3534C51.1282 17.9159 49.6733 16.5659 46.1098 15.6962L46.1038 15.6936V15.6936ZM58.8237 12.7987C57.3486 12.7987 56.1385 13.3817 55.1389 14.5764V13.2317C55.1389 13.1255 55.0539 13.0391 54.9486 13.0391H52.3282C52.2229 13.0391 52.138 13.1255 52.138 13.2317V28.1731C52.138 28.2787 52.2229 28.366 52.3282 28.366H54.9486C55.0539 28.366 55.1389 28.2787 55.1389 28.1731V23.4573C56.1385 24.5799 57.3486 25.1301 58.8237 25.1301C61.5656 25.1301 64.3419 23.0127 64.3419 18.965C64.346 14.9165 61.5697 12.7985 58.8258 12.7985L58.8237 12.7987ZM61.2945 18.965C61.2945 21.0253 60.0298 22.4646 58.2167 22.4646C56.4258 22.4646 55.0741 20.9603 55.0741 18.965C55.0741 16.9694 56.4258 15.4656 58.2167 15.4656C59.9994 15.4654 61.2945 16.9368 61.2945 18.9648V18.965ZM71.4547 12.7987C67.9236 12.7987 65.1574 15.5263 65.1574 19.009C65.1574 22.4545 67.9054 25.1524 71.4122 25.1524C74.9554 25.1524 77.7297 22.4342 77.7297 18.965C77.7297 15.5076 74.9736 12.7991 71.4547 12.7991V12.7987V12.7987ZM71.4547 22.4849C69.5768 22.4849 68.1603 20.9705 68.1603 18.964C68.1603 16.9483 69.5283 15.4857 71.4122 15.4857C73.3022 15.4857 74.7267 16.9995 74.7267 19.008C74.7267 21.0233 73.3507 22.4849 71.4547 22.4849V22.4849ZM85.2694 13.0391H82.3858V10.0821C82.3858 9.97611 82.3009 9.88963 82.1956 9.88963H79.5751C79.4699 9.88963 79.3829 9.97611 79.3829 10.0821V13.0391H78.1243C78.019 13.0391 77.9341 13.1255 77.9341 13.2317V15.4906C77.9341 15.5965 78.019 15.6832 78.1243 15.6832H79.3829V21.5288C79.3829 23.8897 80.5545 25.0874 82.8674 25.0874C83.8064 25.0874 84.5854 24.8926 85.32 24.4744C85.3807 24.4419 85.4171 24.3769 85.4171 24.3079V22.156C85.4171 22.0911 85.3827 22.0281 85.3261 21.9936C85.2694 21.9571 85.1986 21.9551 85.1399 21.9855C84.636 22.2393 84.1483 22.357 83.602 22.357C82.7622 22.357 82.3858 21.9733 82.3858 21.1166V15.6842H85.2694C85.3746 15.6842 85.4596 15.5977 85.4596 15.4916V13.2329C85.4636 13.1268 85.3787 13.0403 85.2714 13.0403L85.2694 13.0391V13.0391ZM95.3142 13.0506V12.6874C95.3142 11.619 95.723 11.1426 96.6376 11.1426C97.184 11.1426 97.6231 11.2514 98.1148 11.4158C98.1755 11.4349 98.2383 11.4254 98.2868 11.389C98.3374 11.3527 98.3657 11.2944 98.3657 11.2327V9.01792C98.3657 8.93327 98.3131 8.85836 98.2302 8.83339C97.7121 8.67849 97.0484 8.51954 96.0528 8.51954C93.6347 8.51954 92.3538 9.88658 92.3538 12.4715V13.0277H91.0952C90.9899 13.0277 90.9029 13.1142 90.9029 13.2201V15.4906C90.9029 15.5965 90.9899 15.6832 91.0952 15.6832H92.3538V24.6977C92.3538 24.8053 92.4408 24.8905 92.546 24.8905H95.1645C95.2718 24.8905 95.3567 24.8053 95.3567 24.6977V15.6838H97.8032L101.551 24.6977C101.126 25.6437 100.707 25.8325 100.136 25.8325C99.675 25.8325 99.1873 25.6944 98.6915 25.4204C98.645 25.396 98.5883 25.392 98.5398 25.4062C98.4892 25.4244 98.4467 25.461 98.4265 25.5097L97.5381 27.4646C97.4956 27.558 97.532 27.6656 97.6211 27.7143C98.5479 28.2178 99.3836 28.433 100.418 28.433C102.352 28.433 103.423 27.5276 104.364 25.0956L108.908 13.3137C108.933 13.2544 108.925 13.1875 108.888 13.1349C108.854 13.0827 108.795 13.0512 108.732 13.0512H106.005C105.922 13.0512 105.849 13.1034 105.822 13.1803L103.028 21.1857L99.9684 13.1751C99.9401 13.1006 99.8692 13.0512 99.7903 13.0512H95.3142V13.0506V13.0506ZM89.4905 13.0391H86.87C86.7648 13.0391 86.6778 13.1255 86.6778 13.2317V24.6977C86.6778 24.8053 86.7648 24.8905 86.87 24.8905H89.4905C89.5957 24.8905 89.6827 24.8053 89.6827 24.6977V13.2325C89.6827 13.1263 89.5977 13.0399 89.4905 13.0399V13.0391ZM88.1954 7.81795C87.1574 7.81795 86.3156 8.66083 86.3156 9.70205C86.3156 10.7439 87.1574 11.5878 88.1954 11.5878C89.2335 11.5878 90.0733 10.7439 90.0733 9.70205C90.0733 8.66103 89.2315 7.81795 88.1954 7.81795ZM111.146 16.7258C110.11 16.7258 109.303 15.8905 109.303 14.8761C109.303 13.8616 110.121 13.0167 111.157 13.0167C112.193 13.0167 113 13.8519 113 14.8655C113 15.8799 112.182 16.7258 111.146 16.7258ZM111.157 13.2006C110.212 13.2006 109.497 13.9538 109.497 14.8761C109.497 15.7979 110.208 16.5409 111.146 16.5409C112.091 16.5409 112.806 15.7884 112.806 14.8655C112.806 13.9436 112.095 13.2006 111.157 13.2006V13.2006ZM111.565 15.0557L112.087 15.7882H111.646L111.177 15.1162H110.774V15.7882H110.406V13.8466H111.268C111.719 13.8466 112.015 14.0774 112.015 14.466C112.017 14.7843 111.832 14.9788 111.567 15.0557H111.565ZM111.254 14.1797H110.774V14.7938H111.254C111.492 14.7938 111.636 14.6763 111.636 14.4865C111.636 14.2867 111.492 14.1797 111.254 14.1797V14.1797Z" fill="black"/>
</svg>
